<mxfile host="65bd71144e">
    <diagram id="hLKC4Fr3p0LAsxu2ghZ4" name="Page-1">
        <mxGraphModel dx="2408" dy="1370" grid="1" gridSize="10" guides="1" tooltips="1" connect="1" arrows="1" fold="1" page="1" pageScale="1" pageWidth="850" pageHeight="1100" math="0" shadow="0">
            <root>
                <mxCell id="0"/>
                <mxCell id="1" parent="0"/>
                <mxCell id="2" value="security guard" style="swimlane;whiteSpace=wrap" parent="1" vertex="1">
                    <mxGeometry x="910" y="40" width="280" height="1192" as="geometry"/>
                </mxCell>
                <mxCell id="4" value="Update Profile&lt;br&gt;(username and password)" style="whiteSpace=wrap;html=1;rounded=0;" parent="2" vertex="1">
                    <mxGeometry x="100" y="760" width="120" height="60" as="geometry"/>
                </mxCell>
                <mxCell id="48" style="edgeStyle=none;html=1;entryX=0.5;entryY=0;entryDx=0;entryDy=0;" edge="1" parent="2" source="46" target="4">
                    <mxGeometry relative="1" as="geometry"/>
                </mxCell>
                <mxCell id="46" value="Conform Account" style="whiteSpace=wrap;html=1;rounded=0;" vertex="1" parent="2">
                    <mxGeometry x="100" y="640" width="120" height="60" as="geometry"/>
                </mxCell>
                <mxCell id="8" value="System" style="swimlane;whiteSpace=wrap" parent="1" vertex="1">
                    <mxGeometry x="630" y="40" width="280" height="1190" as="geometry"/>
                </mxCell>
                <mxCell id="9" value="Create Park Owner Account" style="rounded=0;whiteSpace=wrap;html=1;" parent="8" vertex="1">
                    <mxGeometry x="80" y="109.99424242424239" width="170" height="44.242424242424235" as="geometry"/>
                </mxCell>
                <mxCell id="14" value="is Account&amp;nbsp;Verified" style="rhombus;whiteSpace=wrap;html=1;rounded=0;" parent="8" vertex="1">
                    <mxGeometry x="40" y="330" width="110" height="110" as="geometry"/>
                </mxCell>
                <mxCell id="29" value="create parking center details" style="whiteSpace=wrap;html=1;rounded=0;" parent="8" vertex="1">
                    <mxGeometry x="70" y="640" width="120" height="60" as="geometry"/>
                </mxCell>
                <mxCell id="49" value="update data" style="whiteSpace=wrap;html=1;rounded=0;" vertex="1" parent="8">
                    <mxGeometry x="70" y="760" width="120" height="60" as="geometry"/>
                </mxCell>
                <mxCell id="23" value="parkOwner" style="swimlane;whiteSpace=wrap" parent="1" vertex="1">
                    <mxGeometry x="350" y="40" width="280" height="1192" as="geometry"/>
                </mxCell>
                <mxCell id="24" value="" style="group" parent="23" vertex="1" connectable="0">
                    <mxGeometry x="-220" y="50.00454545454545" width="490" height="743.5454545454545" as="geometry"/>
                </mxCell>
                <mxCell id="25" value="" style="ellipse;shape=startState;fillColor=#000000;strokeColor=#ff0000;" parent="24" vertex="1">
                    <mxGeometry x="350.5" width="30" height="33.18181818181818" as="geometry"/>
                </mxCell>
                <mxCell id="26" value="Register and LogIn" style="rounded=0;whiteSpace=wrap;html=1;" parent="24" vertex="1">
                    <mxGeometry x="280.5" y="59.994242424242444" width="170" height="44.242424242424235" as="geometry"/>
                </mxCell>
                <mxCell id="27" style="edgeStyle=orthogonalEdgeStyle;rounded=0;orthogonalLoop=1;jettySize=auto;html=1;entryX=0.5;entryY=0;entryDx=0;entryDy=0;" parent="24" source="25" target="26" edge="1">
                    <mxGeometry relative="1" as="geometry"/>
                </mxCell>
                <mxCell id="28" value="update Profile Details" style="whiteSpace=wrap;html=1;rounded=0;" parent="24" vertex="1">
                    <mxGeometry x="300" y="179.99333333333328" width="120" height="60" as="geometry"/>
                </mxCell>
                <mxCell id="17" value="Add Parking center details" style="whiteSpace=wrap;html=1;rounded=0;" parent="24" vertex="1">
                    <mxGeometry x="330" y="389.99545454545455" width="120" height="60" as="geometry"/>
                </mxCell>
                <mxCell id="43" value="" style="edgeStyle=none;html=1;" edge="1" parent="24" source="3" target="18">
                    <mxGeometry relative="1" as="geometry"/>
                </mxCell>
                <mxCell id="3" value="Register Security Guard" style="whiteSpace=wrap;html=1;rounded=0;" parent="24" vertex="1">
                    <mxGeometry x="330" y="489.99545454545455" width="120" height="60" as="geometry"/>
                </mxCell>
                <mxCell id="34" value="" style="edgeStyle=none;html=1;" parent="24" source="17" target="3" edge="1">
                    <mxGeometry relative="1" as="geometry"/>
                </mxCell>
                <mxCell id="18" value="Asign Guard to parking center" style="whiteSpace=wrap;html=1;rounded=0;" parent="24" vertex="1">
                    <mxGeometry x="330" y="589.9954545454545" width="120" height="60" as="geometry"/>
                </mxCell>
                <mxCell id="54" style="edgeStyle=none;html=1;" edge="1" parent="23" source="52" target="6">
                    <mxGeometry relative="1" as="geometry"/>
                </mxCell>
                <mxCell id="52" value="Publish Parking Details" style="whiteSpace=wrap;html=1;rounded=0;" vertex="1" parent="23">
                    <mxGeometry x="100" y="830" width="120" height="60" as="geometry"/>
                </mxCell>
                <mxCell id="6" value="" style="ellipse;shape=startState;fillColor=#000000;strokeColor=#ff0000;" parent="23" vertex="1">
                    <mxGeometry x="145" y="980" width="30" height="33.18181818181818" as="geometry"/>
                </mxCell>
                <mxCell id="31" style="edgeStyle=none;html=1;" parent="1" source="26" target="9" edge="1">
                    <mxGeometry relative="1" as="geometry"/>
                </mxCell>
                <mxCell id="32" value="" style="edgeStyle=none;html=1;" parent="1" source="9" target="28" edge="1">
                    <mxGeometry relative="1" as="geometry">
                        <Array as="points">
                            <mxPoint x="795" y="300"/>
                        </Array>
                    </mxGeometry>
                </mxCell>
                <mxCell id="33" value="" style="edgeStyle=none;html=1;" parent="1" source="28" target="14" edge="1">
                    <mxGeometry relative="1" as="geometry">
                        <Array as="points">
                            <mxPoint x="490" y="420"/>
                        </Array>
                    </mxGeometry>
                </mxCell>
                <mxCell id="42" value="No" style="edgeStyle=none;html=1;entryX=1;entryY=1;entryDx=0;entryDy=0;" edge="1" parent="1" source="14" target="28">
                    <mxGeometry relative="1" as="geometry">
                        <Array as="points">
                            <mxPoint x="725" y="370"/>
                            <mxPoint x="725" y="330"/>
                        </Array>
                    </mxGeometry>
                </mxCell>
                <mxCell id="12" value="" style="edgeStyle=none;html=1;exitX=0.5;exitY=1;exitDx=0;exitDy=0;" parent="1" source="14" target="17" edge="1">
                    <mxGeometry relative="1" as="geometry">
                        <Array as="points">
                            <mxPoint x="725" y="510"/>
                        </Array>
                    </mxGeometry>
                </mxCell>
                <mxCell id="13" value="yes" style="edgeLabel;html=1;align=center;verticalAlign=middle;resizable=0;points=[];" parent="12" vertex="1" connectable="0">
                    <mxGeometry x="-0.2" relative="1" as="geometry">
                        <mxPoint as="offset"/>
                    </mxGeometry>
                </mxCell>
                <mxCell id="36" value="" style="edgeStyle=none;html=1;" parent="1" source="18" target="29" edge="1">
                    <mxGeometry relative="1" as="geometry"/>
                </mxCell>
                <mxCell id="47" value="" style="edgeStyle=none;html=1;" edge="1" parent="1" source="29" target="46">
                    <mxGeometry relative="1" as="geometry"/>
                </mxCell>
                <mxCell id="50" value="" style="edgeStyle=none;html=1;" edge="1" parent="1" source="4" target="49">
                    <mxGeometry relative="1" as="geometry"/>
                </mxCell>
                <mxCell id="53" value="" style="edgeStyle=none;html=1;exitX=0.5;exitY=1;exitDx=0;exitDy=0;" edge="1" parent="1" source="49" target="52">
                    <mxGeometry relative="1" as="geometry">
                        <Array as="points">
                            <mxPoint x="760" y="900"/>
                        </Array>
                    </mxGeometry>
                </mxCell>
            </root>
        </mxGraphModel>
    </diagram>
</mxfile>